<mxfile host="Electron" modified="2024-03-29T13:32:47.684Z" agent="Mozilla/5.0 (Macintosh; Intel Mac OS X 10_15_7) AppleWebKit/537.36 (KHTML, like Gecko) draw.io/24.1.0 Chrome/120.0.6099.109 Electron/28.1.0 Safari/537.36" etag="u5uWm5YxV4kCUNSDy8qn" version="24.1.0" type="device" pages="2">
  <diagram name="main" id="m0zTKrYATkNEm8Ja8VeW">
    <mxGraphModel dx="1054" dy="573" grid="1" gridSize="10" guides="1" tooltips="1" connect="1" arrows="1" fold="1" page="1" pageScale="1" pageWidth="850" pageHeight="1100" math="0" shadow="0">
      <root>
        <mxCell id="0" />
        <mxCell id="1" parent="0" />
        <mxCell id="IrST1PDGbHLIt9srIL5f-14" style="edgeStyle=orthogonalEdgeStyle;rounded=0;orthogonalLoop=1;jettySize=auto;html=1;exitX=1;exitY=0.5;exitDx=0;exitDy=0;exitPerimeter=0;entryX=0;entryY=0.5;entryDx=0;entryDy=0;entryPerimeter=0;" parent="1" source="IrST1PDGbHLIt9srIL5f-1" target="IrST1PDGbHLIt9srIL5f-8" edge="1">
          <mxGeometry relative="1" as="geometry">
            <mxPoint x="130" y="170" as="targetPoint" />
          </mxGeometry>
        </mxCell>
        <mxCell id="IrST1PDGbHLIt9srIL5f-1" value="" style="rhombus;whiteSpace=wrap;html=1;rounded=1;fontStyle=1;glass=0;sketch=0;fontSize=12;points=[[0,0.5,0,0,0],[0.5,0,0,0,0],[0.5,1,0,0,0],[1,0.5,0,0,0]];shadow=1;fontFamily=Helvetica;fontColor=default;" parent="1" vertex="1">
          <mxGeometry x="40" y="112.5" width="40" height="40" as="geometry" />
        </mxCell>
        <mxCell id="IrST1PDGbHLIt9srIL5f-6" value="A" style="rounded=1;whiteSpace=wrap;html=1;sketch=0;container=1;recursiveResize=0;verticalAlign=top;arcSize=6;fontStyle=1;autosize=0;points=[];absoluteArcSize=1;shadow=1;strokeColor=#001DBC;fillColor=#DAE8FC;fontColor=#ffffff;gradientColor=#0050EF;fontFamily=Helvetica;fontSize=11;" parent="1" vertex="1">
          <mxGeometry x="160" y="80" width="130" height="130" as="geometry">
            <mxRectangle x="-98" y="-1230" width="99" height="26" as="alternateBounds" />
          </mxGeometry>
        </mxCell>
        <mxCell id="IrST1PDGbHLIt9srIL5f-9" value="Aout" style="rounded=1;whiteSpace=wrap;html=1;sketch=0;points=[[0,0.5,0,0,0],[1,0.5,0,0,0]];fillColor=#1ba1e2;fontColor=#ffffff;strokeColor=#006EAF;arcSize=50;fontFamily=Helvetica;fontSize=11;" parent="IrST1PDGbHLIt9srIL5f-6" vertex="1">
          <mxGeometry x="110" y="40" width="40" height="25" as="geometry" />
        </mxCell>
        <mxCell id="IrST1PDGbHLIt9srIL5f-10" value="✗" style="rounded=1;whiteSpace=wrap;html=1;sketch=0;points=[[0,0.5,0,0,0],[1,0.5,0,0,0]];fillColor=#1ba1e2;fontColor=#ffffff;strokeColor=#006EAF;arcSize=50;opacity=30;textOpacity=30;fontFamily=Helvetica;fontSize=11;" parent="IrST1PDGbHLIt9srIL5f-6" vertex="1">
          <mxGeometry x="110" y="80" width="40" height="25" as="geometry" />
        </mxCell>
        <mxCell id="IrST1PDGbHLIt9srIL5f-8" value="Ain" style="rounded=1;whiteSpace=wrap;html=1;sketch=0;points=[[0,0.5,0,0,0],[1,0.5,0,0,0]];arcSize=50;fontFamily=Helvetica;fontSize=11;fontColor=default;" parent="IrST1PDGbHLIt9srIL5f-6" vertex="1">
          <mxGeometry x="-10" y="40" width="40" height="25" as="geometry" />
        </mxCell>
        <mxCell id="IrST1PDGbHLIt9srIL5f-11" value="" style="rhombus;whiteSpace=wrap;html=1;rounded=1;fontStyle=1;glass=0;sketch=0;fontSize=12;points=[[0,0.5,0,0,0],[0.5,0,0,0,0],[0.5,1,0,0,0],[1,0.5,0,0,0]];shadow=1;fillColor=#0050ef;fontColor=#ffffff;strokeColor=#001DBC;fontFamily=Helvetica;" parent="1" vertex="1">
          <mxGeometry x="1300" y="112.5" width="40" height="40" as="geometry" />
        </mxCell>
        <mxCell id="IrST1PDGbHLIt9srIL5f-12" value="✗" style="rhombus;whiteSpace=wrap;html=1;rounded=1;fillColor=#0050ef;fontColor=#ffffff;strokeColor=#001DBC;fontStyle=1;glass=0;sketch=0;fontSize=12;points=[[0,0.5,0,0,0],[0.5,0,0,0,0],[0.5,1,0,0,0],[1,0.5,0,0,0]];shadow=1;opacity=30;textOpacity=30;" parent="1" vertex="1">
          <mxGeometry x="1300" y="350" width="40" height="40" as="geometry" />
        </mxCell>
        <mxCell id="IrST1PDGbHLIt9srIL5f-15" style="edgeStyle=orthogonalEdgeStyle;rounded=1;orthogonalLoop=1;jettySize=auto;html=1;exitX=1;exitY=0.5;exitDx=0;exitDy=0;exitPerimeter=0;entryX=0;entryY=0.5;entryDx=0;entryDy=0;entryPerimeter=0;curved=0;" parent="1" source="IrST1PDGbHLIt9srIL5f-10" target="IrST1PDGbHLIt9srIL5f-12" edge="1">
          <mxGeometry relative="1" as="geometry">
            <Array as="points">
              <mxPoint x="350" y="173" />
              <mxPoint x="350" y="370" />
            </Array>
          </mxGeometry>
        </mxCell>
        <mxCell id="0zck510rBaCpXE8lUyn1-1" value="B" style="rounded=1;whiteSpace=wrap;html=1;sketch=0;container=1;recursiveResize=0;verticalAlign=top;arcSize=6;fontStyle=1;autosize=0;points=[];absoluteArcSize=1;shadow=1;strokeColor=#001DBC;fillColor=#DAE8FC;fontColor=#ffffff;gradientColor=#0050EF;fontFamily=Helvetica;fontSize=11;" parent="1" vertex="1">
          <mxGeometry x="450" y="80" width="130" height="130" as="geometry">
            <mxRectangle x="-98" y="-1230" width="99" height="26" as="alternateBounds" />
          </mxGeometry>
        </mxCell>
        <mxCell id="0zck510rBaCpXE8lUyn1-2" value="Bout" style="rounded=1;whiteSpace=wrap;html=1;sketch=0;points=[[0,0.5,0,0,0],[1,0.5,0,0,0]];fillColor=#1ba1e2;fontColor=#ffffff;strokeColor=#006EAF;arcSize=50;fontFamily=Helvetica;fontSize=11;" parent="0zck510rBaCpXE8lUyn1-1" vertex="1">
          <mxGeometry x="110" y="40" width="40" height="25" as="geometry" />
        </mxCell>
        <mxCell id="0zck510rBaCpXE8lUyn1-3" value="✗" style="rounded=1;whiteSpace=wrap;html=1;sketch=0;points=[[0,0.5,0,0,0],[1,0.5,0,0,0]];fillColor=#1ba1e2;fontColor=#ffffff;strokeColor=#006EAF;arcSize=50;opacity=30;textOpacity=30;fontFamily=Helvetica;fontSize=11;" parent="0zck510rBaCpXE8lUyn1-1" vertex="1">
          <mxGeometry x="110" y="80" width="40" height="25" as="geometry" />
        </mxCell>
        <mxCell id="0zck510rBaCpXE8lUyn1-4" value="Bin" style="rounded=1;whiteSpace=wrap;html=1;sketch=0;points=[[0,0.5,0,0,0],[1,0.5,0,0,0]];arcSize=50;fontFamily=Helvetica;fontSize=11;fontColor=default;" parent="0zck510rBaCpXE8lUyn1-1" vertex="1">
          <mxGeometry x="-10" y="40" width="40" height="25" as="geometry" />
        </mxCell>
        <mxCell id="0zck510rBaCpXE8lUyn1-7" style="edgeStyle=orthogonalEdgeStyle;rounded=1;orthogonalLoop=1;jettySize=auto;html=1;exitX=1;exitY=0.5;exitDx=0;exitDy=0;exitPerimeter=0;entryX=0;entryY=0.5;entryDx=0;entryDy=0;entryPerimeter=0;curved=0;" parent="1" source="0zck510rBaCpXE8lUyn1-3" target="IrST1PDGbHLIt9srIL5f-12" edge="1">
          <mxGeometry relative="1" as="geometry">
            <Array as="points">
              <mxPoint x="640" y="173" />
              <mxPoint x="640" y="370" />
            </Array>
          </mxGeometry>
        </mxCell>
        <mxCell id="soCJ5IpD1Uu3TGD9BbyX-1" value="C" style="rounded=1;whiteSpace=wrap;html=1;sketch=0;container=1;recursiveResize=0;verticalAlign=top;arcSize=6;fontStyle=1;autosize=0;points=[];absoluteArcSize=1;shadow=1;strokeColor=#001DBC;fillColor=#DAE8FC;fontColor=#ffffff;gradientColor=#0050EF;fontFamily=Helvetica;fontSize=11;" parent="1" vertex="1">
          <mxGeometry x="740" y="80" width="130" height="130" as="geometry">
            <mxRectangle x="-98" y="-1230" width="99" height="26" as="alternateBounds" />
          </mxGeometry>
        </mxCell>
        <mxCell id="soCJ5IpD1Uu3TGD9BbyX-2" value="Cout" style="rounded=1;whiteSpace=wrap;html=1;sketch=0;points=[[0,0.5,0,0,0],[1,0.5,0,0,0]];fillColor=#1ba1e2;fontColor=#ffffff;strokeColor=#006EAF;arcSize=50;fontFamily=Helvetica;fontSize=11;" parent="soCJ5IpD1Uu3TGD9BbyX-1" vertex="1">
          <mxGeometry x="110" y="40" width="40" height="25" as="geometry" />
        </mxCell>
        <mxCell id="soCJ5IpD1Uu3TGD9BbyX-3" value="✗" style="rounded=1;whiteSpace=wrap;html=1;sketch=0;points=[[0,0.5,0,0,0],[1,0.5,0,0,0]];fillColor=#1ba1e2;fontColor=#ffffff;strokeColor=#006EAF;arcSize=50;opacity=30;textOpacity=30;fontFamily=Helvetica;fontSize=11;" parent="soCJ5IpD1Uu3TGD9BbyX-1" vertex="1">
          <mxGeometry x="110" y="80" width="40" height="25" as="geometry" />
        </mxCell>
        <mxCell id="soCJ5IpD1Uu3TGD9BbyX-4" value="Cin" style="rounded=1;whiteSpace=wrap;html=1;sketch=0;points=[[0,0.5,0,0,0],[1,0.5,0,0,0]];arcSize=50;fontFamily=Helvetica;fontSize=11;fontColor=default;" parent="soCJ5IpD1Uu3TGD9BbyX-1" vertex="1">
          <mxGeometry x="-10" y="40" width="40" height="25" as="geometry" />
        </mxCell>
        <mxCell id="soCJ5IpD1Uu3TGD9BbyX-5" style="edgeStyle=orthogonalEdgeStyle;rounded=0;orthogonalLoop=1;jettySize=auto;html=1;exitX=1;exitY=0.5;exitDx=0;exitDy=0;exitPerimeter=0;entryX=0;entryY=0.5;entryDx=0;entryDy=0;entryPerimeter=0;strokeWidth=2;" parent="1" source="0zck510rBaCpXE8lUyn1-2" target="soCJ5IpD1Uu3TGD9BbyX-4" edge="1">
          <mxGeometry relative="1" as="geometry" />
        </mxCell>
        <mxCell id="soCJ5IpD1Uu3TGD9BbyX-7" style="edgeStyle=orthogonalEdgeStyle;rounded=1;orthogonalLoop=1;jettySize=auto;html=1;exitX=1;exitY=0.5;exitDx=0;exitDy=0;exitPerimeter=0;entryX=0;entryY=0.5;entryDx=0;entryDy=0;entryPerimeter=0;curved=0;" parent="1" source="soCJ5IpD1Uu3TGD9BbyX-3" target="IrST1PDGbHLIt9srIL5f-12" edge="1">
          <mxGeometry relative="1" as="geometry">
            <Array as="points">
              <mxPoint x="940" y="173" />
              <mxPoint x="940" y="370" />
            </Array>
          </mxGeometry>
        </mxCell>
        <mxCell id="soCJ5IpD1Uu3TGD9BbyX-10" value="Z" style="rounded=1;whiteSpace=wrap;html=1;sketch=0;container=1;recursiveResize=0;verticalAlign=top;arcSize=6;fontStyle=1;autosize=0;points=[];absoluteArcSize=1;shadow=1;strokeColor=#001DBC;fillColor=#DAE8FC;fontColor=#ffffff;gradientColor=#0050EF;fontFamily=Helvetica;fontSize=11;" parent="1" vertex="1">
          <mxGeometry x="1030" y="80" width="130" height="130" as="geometry">
            <mxRectangle x="-98" y="-1230" width="99" height="26" as="alternateBounds" />
          </mxGeometry>
        </mxCell>
        <mxCell id="soCJ5IpD1Uu3TGD9BbyX-11" value="Zout" style="rounded=1;whiteSpace=wrap;html=1;sketch=0;points=[[0,0.5,0,0,0],[1,0.5,0,0,0]];fillColor=#1ba1e2;fontColor=#ffffff;strokeColor=#006EAF;arcSize=50;fontFamily=Helvetica;fontSize=11;" parent="soCJ5IpD1Uu3TGD9BbyX-10" vertex="1">
          <mxGeometry x="110" y="40" width="40" height="25" as="geometry" />
        </mxCell>
        <mxCell id="soCJ5IpD1Uu3TGD9BbyX-12" value="✗" style="rounded=1;whiteSpace=wrap;html=1;sketch=0;points=[[0,0.5,0,0,0],[1,0.5,0,0,0]];fillColor=#1ba1e2;fontColor=#ffffff;strokeColor=#006EAF;arcSize=50;opacity=30;textOpacity=30;fontFamily=Helvetica;fontSize=11;" parent="soCJ5IpD1Uu3TGD9BbyX-10" vertex="1">
          <mxGeometry x="110" y="80" width="40" height="25" as="geometry" />
        </mxCell>
        <mxCell id="soCJ5IpD1Uu3TGD9BbyX-13" value="Zin" style="rounded=1;whiteSpace=wrap;html=1;sketch=0;points=[[0,0.5,0,0,0],[1,0.5,0,0,0]];arcSize=50;fontFamily=Helvetica;fontSize=11;fontColor=default;" parent="soCJ5IpD1Uu3TGD9BbyX-10" vertex="1">
          <mxGeometry x="-10" y="40" width="40" height="25" as="geometry" />
        </mxCell>
        <mxCell id="soCJ5IpD1Uu3TGD9BbyX-15" style="edgeStyle=orthogonalEdgeStyle;curved=0;rounded=1;orthogonalLoop=1;jettySize=auto;html=1;exitX=1;exitY=0.5;exitDx=0;exitDy=0;exitPerimeter=0;strokeColor=default;strokeWidth=2;align=center;verticalAlign=middle;fontFamily=Helvetica;fontSize=11;fontColor=default;labelBackgroundColor=default;endArrow=classic;" parent="1" source="soCJ5IpD1Uu3TGD9BbyX-11" target="IrST1PDGbHLIt9srIL5f-11" edge="1">
          <mxGeometry relative="1" as="geometry" />
        </mxCell>
        <mxCell id="soCJ5IpD1Uu3TGD9BbyX-16" style="edgeStyle=orthogonalEdgeStyle;curved=0;rounded=1;orthogonalLoop=1;jettySize=auto;html=1;exitX=1;exitY=0.5;exitDx=0;exitDy=0;exitPerimeter=0;entryX=0;entryY=0.5;entryDx=0;entryDy=0;entryPerimeter=0;strokeColor=default;strokeWidth=1;align=center;verticalAlign=middle;fontFamily=Helvetica;fontSize=11;fontColor=default;labelBackgroundColor=default;endArrow=classic;opacity=30;" parent="1" source="soCJ5IpD1Uu3TGD9BbyX-12" target="IrST1PDGbHLIt9srIL5f-12" edge="1">
          <mxGeometry relative="1" as="geometry" />
        </mxCell>
        <mxCell id="WIVduyeV0h7sbEdzwuJE-1" style="edgeStyle=orthogonalEdgeStyle;rounded=1;orthogonalLoop=1;jettySize=auto;html=1;exitX=1;exitY=0.5;exitDx=0;exitDy=0;exitPerimeter=0;entryX=0;entryY=0.5;entryDx=0;entryDy=0;entryPerimeter=0;strokeWidth=2;curved=0;" edge="1" parent="1" source="IrST1PDGbHLIt9srIL5f-9" target="0zck510rBaCpXE8lUyn1-4">
          <mxGeometry relative="1" as="geometry" />
        </mxCell>
        <mxCell id="WIVduyeV0h7sbEdzwuJE-3" style="edgeStyle=orthogonalEdgeStyle;curved=0;rounded=1;orthogonalLoop=1;jettySize=auto;html=1;exitX=1;exitY=0.5;exitDx=0;exitDy=0;exitPerimeter=0;strokeColor=default;strokeWidth=2;align=center;verticalAlign=middle;fontFamily=Helvetica;fontSize=11;fontColor=default;labelBackgroundColor=default;endArrow=classic;" edge="1" parent="1" source="soCJ5IpD1Uu3TGD9BbyX-2" target="soCJ5IpD1Uu3TGD9BbyX-13">
          <mxGeometry relative="1" as="geometry" />
        </mxCell>
      </root>
    </mxGraphModel>
  </diagram>
  <diagram id="tdX2_95LEIDNDVLNdQ2E" name="Z">
    <mxGraphModel dx="998" dy="573" grid="1" gridSize="10" guides="1" tooltips="1" connect="1" arrows="1" fold="1" page="1" pageScale="1" pageWidth="850" pageHeight="1100" math="0" shadow="0">
      <root>
        <mxCell id="0" />
        <mxCell id="1" parent="0" />
        <mxCell id="21G5c-3uB1trR0DvUDY4-4" style="edgeStyle=orthogonalEdgeStyle;curved=0;rounded=1;orthogonalLoop=1;jettySize=auto;html=1;exitX=1;exitY=0.5;exitDx=0;exitDy=0;exitPerimeter=0;strokeColor=default;strokeWidth=2;align=center;verticalAlign=middle;fontFamily=Helvetica;fontSize=11;fontColor=default;labelBackgroundColor=default;endArrow=classic;" parent="1" source="21G5c-3uB1trR0DvUDY4-1" target="21G5c-3uB1trR0DvUDY4-2" edge="1">
          <mxGeometry relative="1" as="geometry" />
        </mxCell>
        <mxCell id="21G5c-3uB1trR0DvUDY4-1" value="Zin" style="rhombus;whiteSpace=wrap;html=1;rounded=1;fontStyle=1;glass=0;sketch=0;fontSize=12;points=[[0,0.5,0,0,0],[0.5,0,0,0,0],[0.5,1,0,0,0],[1,0.5,0,0,0]];shadow=1;fontFamily=Helvetica;fontColor=default;labelBackgroundColor=default;" parent="1" vertex="1">
          <mxGeometry x="40" y="80" width="40" height="40" as="geometry" />
        </mxCell>
        <mxCell id="21G5c-3uB1trR0DvUDY4-2" value="Zout" style="rhombus;whiteSpace=wrap;html=1;rounded=1;fontStyle=1;glass=0;sketch=0;fontSize=12;points=[[0,0.5,0,0,0],[0.5,0,0,0,0],[0.5,1,0,0,0],[1,0.5,0,0,0]];shadow=1;fillColor=#0050ef;fontColor=#ffffff;strokeColor=#001DBC;fontFamily=Helvetica;labelBackgroundColor=none;" parent="1" vertex="1">
          <mxGeometry x="200" y="80" width="40" height="40" as="geometry" />
        </mxCell>
        <mxCell id="21G5c-3uB1trR0DvUDY4-3" value="✗" style="rhombus;whiteSpace=wrap;html=1;rounded=1;fillColor=#0050ef;fontColor=#ffffff;strokeColor=#001DBC;fontStyle=1;glass=0;sketch=0;fontSize=12;points=[[0,0.5,0,0,0],[0.5,0,0,0,0],[0.5,1,0,0,0],[1,0.5,0,0,0]];shadow=1;opacity=30;textOpacity=30;fontFamily=Helvetica;labelBackgroundColor=none;" parent="1" vertex="1">
          <mxGeometry x="200" y="160" width="40" height="40" as="geometry" />
        </mxCell>
      </root>
    </mxGraphModel>
  </diagram>
</mxfile>
